<svg width="12" height="13" viewBox="0 0 12 13" fill="none" xmlns="http://www.w3.org/2000/svg">
<path d="M8.80684 8.25717C9.53304 7.26623 9.85829 6.03762 9.71754 4.81716C9.57678 3.5967 8.98039 2.4744 8.04769 1.67477C7.11499 0.875142 5.91476 0.457169 4.68712 0.504472C3.45949 0.551776 2.29498 1.06087 1.42657 1.92989C0.558166 2.79892 0.0499094 3.96379 0.00348477 5.19146C-0.0429399 6.41914 0.375891 7.61907 1.17618 8.5512C1.97648 9.48333 3.09922 10.0789 4.31978 10.2188C5.54034 10.3587 6.7687 10.0325 7.75913 9.30563C7.78113 9.33563 7.80488 9.36438 7.83188 9.39188L10.7193 12.2793C10.8599 12.42 11.0507 12.4991 11.2496 12.4992C11.4486 12.4992 11.6394 12.4203 11.7801 12.2796C11.9208 12.139 11.9999 11.9483 12 11.7493C12.0001 11.5504 11.9211 11.3595 11.7805 11.2188L8.89309 8.33142C8.86629 8.30426 8.83746 8.27994 8.80684 8.25717ZM9.00033 5.37428C9.00033 5.91596 8.89364 6.45234 8.68635 6.95279C8.47906 7.45324 8.17522 7.90796 7.7922 8.29099C7.40917 8.67402 6.95445 8.97785 6.454 9.18514C5.95355 9.39244 5.41717 9.49913 4.87549 9.49913C4.33381 9.49913 3.79743 9.39244 3.29698 9.18514C2.79653 8.97785 2.34181 8.67402 1.95878 8.29099C1.57576 7.90796 1.27192 7.45324 1.06463 6.95279C0.857337 6.45234 0.750645 5.91596 0.750645 5.37428C0.750645 4.28031 1.18523 3.23113 1.95878 2.45758C2.73234 1.68402 3.78151 1.24944 4.87549 1.24944C5.96947 1.24944 7.01864 1.68402 7.7922 2.45758C8.56575 3.23113 9.00033 4.28031 9.00033 5.37428Z" fill="#827F7F"/>
</svg>
