<svg width="19" height="20" viewBox="0 0 19 20" fill="none" xmlns="http://www.w3.org/2000/svg">
<path id="Vector" d="M18.5809 8.44786C18.6911 9.08173 18.746 9.72398 18.745 10.3674C18.745 13.2407 17.718 15.6702 15.9307 17.3146H15.933C14.3701 18.7584 12.2215 19.5942 9.67402 19.5942C7.16932 19.5942 4.76719 18.5992 2.9961 16.8281C1.225 15.057 0.230011 12.6549 0.230011 10.1501C0.230011 7.64543 1.225 5.24331 2.9961 3.47222C4.76719 1.70112 7.16932 0.706131 9.67402 0.706131C12.0182 0.680025 14.2818 1.5606 15.9921 3.16393L13.2958 5.8602C12.3209 4.93144 11.0203 4.42272 9.67402 4.4436C7.21032 4.4436 5.11729 6.10574 4.37121 8.34398C3.97633 9.51692 3.97633 10.7869 4.37121 11.9599H4.37475C5.12437 14.1945 7.21386 15.8567 9.67757 15.8567C10.9501 15.8567 12.0433 15.5309 12.8909 14.9548H12.8873C13.3796 14.6288 13.8007 14.2065 14.1251 13.7132C14.4495 13.22 14.6706 12.6661 14.775 12.085H9.67402V8.44904L18.5809 8.44786Z" fill="white"/>
</svg>
